HIERARCHY
ROOT Hips
{
	OFFSET 0.000000 0.000000 0.000000 
	CHANNELS 6 Xposition Yposition Zposition Zrotation Yrotation Xrotation
	JOINT LeftUpLeg
	{
		OFFSET 1.363060 -1.794630 0.839290 
		CHANNELS 3 Zrotation Yrotation Xrotation
		JOINT LeftLeg
		{
			OFFSET 2.448110 -6.726130 0.000000 
			CHANNELS 3 Zrotation Yrotation Xrotation
			JOINT LeftFoot
			{
				OFFSET 2.562200 -7.039590 0.000000 
				CHANNELS 3 Zrotation Yrotation Xrotation
				JOINT LeftToeBase
				{
					OFFSET 0.157640 -0.433110 2.322550 
					CHANNELS 3 Zrotation Yrotation Xrotation
					End Site
					{
						OFFSET 0.000000 0.000000 0.000000 
					}
				}
			}
		}
	}
	JOINT RightUpLeg
	{
		OFFSET -1.305520 -1.794630 0.839290 
		CHANNELS 3 Zrotation Yrotation Xrotation
		JOINT RightLeg
		{
			OFFSET -2.542530 -6.985550 0.000000 
			CHANNELS 3 Zrotation Yrotation Xrotation
			JOINT RightFoot
			{
				OFFSET -2.568260 -7.056230 0.000000 
				CHANNELS 3 Zrotation Yrotation Xrotation
				JOINT RightToeBase
				{
					OFFSET -0.164730 -0.452590 2.363150 
					CHANNELS 3 Zrotation Yrotation Xrotation
					End Site
					{
						OFFSET 0.000000 0.000000 0.000000 
					}
				}
			}
		}
	}
	JOINT Spine
	{
		OFFSET 0.028270 2.035590 -0.193380 
		CHANNELS 3 Zrotation Yrotation Xrotation
		JOINT Spine1
		{
			OFFSET 0.056720 2.048850 -0.042750 
			CHANNELS 3 Zrotation Yrotation Xrotation
			JOINT Neck1
			{
				OFFSET -0.054170 1.746240 0.172020 
				CHANNELS 3 Zrotation Yrotation Xrotation
				JOINT Head
				{
					OFFSET 0.104070 1.761360 -0.123970 
					CHANNELS 3 Zrotation Yrotation Xrotation
					End Site
					{
						OFFSET 0.000000 0.000000 0.000000 
					}
				}
			}
			JOINT LeftArm
			{
				OFFSET 3.362410 1.200890 -0.311210 
				CHANNELS 3 Zrotation Yrotation Xrotation
				JOINT LeftForeArm
				{
					OFFSET 4.983000 -0.000000 -0.000000 
					CHANNELS 3 Zrotation Yrotation Xrotation
					JOINT LeftHand
					{
						OFFSET 3.483560 -0.000000 -0.000000 
						CHANNELS 3 Zrotation Yrotation Xrotation
						JOINT LeftHandIndex1
						{
							OFFSET 0.715260 -0.000000 -0.000000 
							CHANNELS 3 Zrotation Yrotation Xrotation
							End Site
							{
								OFFSET 0.000000 0.000000 0.000000 
							}
						}
					}
				}
			}
			JOINT RightArm
			{
				OFFSET -3.136600 1.374050 -0.404650 
				CHANNELS 3 Zrotation Yrotation Xrotation
				JOINT RightForeArm
				{
					OFFSET -5.241900 -0.000000 -0.000000 
					CHANNELS 3 Zrotation Yrotation Xrotation
					JOINT RightHand
					{
						OFFSET -3.444170 -0.000000 -0.000000 
						CHANNELS 3 Zrotation Yrotation Xrotation
						JOINT RightHandIndex1
						{
							OFFSET -0.622530 -0.000000 -0.000000 
							CHANNELS 3 Zrotation Yrotation Xrotation
							End Site
							{
								OFFSET 0.000000 0.000000 0.000000 
							}
						}
					}
				}
			}
		}
	}
}
MOTION
Frames: 18
Frame Time: 0.041667
4.725223 18.000598 12.754573 -0.401422 -3.034606 -1.909614 -17.909300 -9.951698 -12.179927 0.087596 6.781545 25.128919 0.604223 -1.357440 4.739651 -0.000000 -0.031700 -0.087100 20.759497 10.412647 -22.179899 -13.835677 -16.899773 69.423282 2.377441 -11.977562 13.205093 -0.490300 -4.489900 12.459100 2.568536 0.182084 3.151005 1.634958 -0.017649 -8.174561 3.627967 -4.733350 19.257462 -0.004600 -1.918900 9.441300 -79.386123 6.873409 23.870666 11.473953 -19.889875 -2.105783 -0.602247 -0.978706 -3.100904 -7.125000 0.000000 0.000000 74.297164 -0.103397 4.791620 -9.356198 20.433789 -2.083453 1.086217 -0.587148 7.243912 7.125000 0.000000 0.000000 
4.723117 17.991572 12.920953 -0.373341 -2.932422 -1.841643 -18.033738 -10.069859 -11.639408 0.134612 6.800558 25.285528 0.557537 -1.189295 4.177202 0.003300 0.369400 1.015000 20.669174 10.783291 -23.193879 -13.551021 -16.888867 68.884801 2.224386 -10.844308 11.639436 -0.421000 -4.164600 11.540300 2.527546 0.078327 3.136641 1.646041 -0.075994 -8.228005 3.516671 -4.759808 19.046511 -0.071000 -1.937300 9.354600 -78.978518 6.430644 24.346630 11.596750 -20.071734 -2.153931 -0.581642 -0.961095 -3.314853 -7.125000 0.000000 0.000000 74.510893 -0.313290 4.891259 -9.405261 20.510387 -2.097679 1.096835 -0.580937 7.198219 7.125000 0.000000 0.000000 
4.723719 17.976228 13.091444 -0.336275 -2.832217 -1.893887 -18.190186 -9.993808 -11.069427 0.166785 6.794959 25.377735 0.550450 -1.155890 3.631179 0.012200 0.712500 1.958100 20.564898 11.092100 -24.044310 -13.243340 -16.856344 68.172394 2.114990 -10.053667 10.367537 -0.328600 -3.684500 10.190600 2.644527 -0.103542 3.338502 1.828592 -0.164271 -8.002002 3.423032 -4.583541 18.826569 -0.077900 -1.875500 9.305700 -78.851195 6.073105 24.641766 11.894084 -20.521414 -2.268180 -0.589876 -0.941033 -2.239292 -7.125000 0.000000 0.000000 74.454585 -0.317498 5.111785 -9.406136 20.521106 -2.105751 1.088504 -0.562833 7.129152 7.125000 0.000000 0.000000 
4.729034 17.961887 13.267051 -0.046771 -2.833946 -1.814597 -18.655846 -9.838774 -10.558522 0.204083 6.782925 25.485734 0.549650 -1.161931 3.047009 0.021800 0.952200 2.617300 20.104459 11.449261 -25.066918 -12.901354 -16.830442 67.293263 2.009325 -9.405026 9.389126 -0.255200 -3.250300 8.976400 2.546717 -0.151905 3.269170 1.840421 -0.195332 -7.980707 3.457295 -4.495860 18.669030 -0.048000 -1.840300 9.220300 -78.552679 6.046157 25.461800 12.192631 -20.999103 -2.385120 -0.616223 -0.948038 -1.785922 -7.125000 0.000000 0.000000 74.464982 -0.790193 5.397643 -9.450009 20.613643 -2.111167 1.096254 -0.608732 6.845077 7.125000 0.000000 0.000000 
4.728433 17.948147 13.446267 0.258425 -2.644019 -1.810283 -19.116973 -9.796029 -9.885866 0.240951 6.763155 25.588339 0.582906 -1.274915 2.352219 0.028900 1.097300 3.016500 19.639893 11.531453 -25.954891 -12.506729 -16.782848 66.234033 1.949182 -8.933999 8.223119 -0.184200 -2.764000 7.622300 2.490562 -0.294917 3.109106 2.003836 -0.262177 -8.174153 3.358399 -4.375662 18.636310 -0.063800 -1.796700 9.160500 -78.248206 6.222018 27.504061 12.008264 -20.711091 -2.335078 -0.699339 -0.739592 -7.394414 -7.125000 0.000000 0.000000 74.471951 -1.207137 5.445306 -9.361071 20.486941 -2.056298 1.120502 -0.658916 6.761533 7.125000 0.000000 0.000000 
4.717902 17.933003 13.624882 0.397405 -2.490290 -1.869029 -19.342819 -9.638459 -9.270603 0.271464 6.748756 25.665181 0.607336 -1.324397 1.716673 0.027400 1.069500 2.940000 19.427866 11.637472 -26.648187 -12.081689 -16.687559 65.031797 1.964305 -8.767869 7.000553 -0.119000 -2.223900 6.124900 2.523249 -0.458282 3.263499 2.205919 -0.340799 -8.042201 3.297799 -4.343553 18.492715 -0.068100 -1.799200 9.144000 -77.954455 5.611689 26.855292 12.382168 -21.278964 -2.463755 -0.599409 -0.912915 -4.912145 -7.125000 0.000000 0.000000 74.508059 -1.237237 5.593968 -9.328261 20.438150 -2.040211 1.119856 -0.671118 6.708996 7.125000 0.000000 0.000000 
4.710180 17.906126 13.793268 0.356448 -2.507476 -1.835686 -19.356159 -9.451890 -8.906992 0.283325 6.730968 25.674455 0.615336 -1.297926 1.228356 0.012700 0.726400 1.996200 19.415840 11.964786 -27.459375 -11.650357 -16.562166 63.734380 2.033916 -8.883715 6.247867 -0.103300 -2.072400 5.705900 2.621987 -0.550642 3.369973 2.296438 -0.392455 -7.973502 3.426365 -4.302036 18.366130 0.008800 -1.785200 9.151600 -77.747130 5.010046 26.683321 12.665324 -21.704697 -2.562339 -0.532827 -1.045921 -4.028300 -7.125000 0.000000 0.000000 74.470343 -1.291698 5.873297 -9.346567 20.479530 -2.044380 1.109905 -0.699712 6.559551 7.125000 0.000000 0.000000 
4.706971 17.883460 13.963158 0.363180 -2.282880 -1.758358 -19.426710 -9.542078 -8.488119 0.281113 6.690836 25.628755 0.603474 -1.285746 1.251295 0.034400 1.196500 3.289600 19.280823 11.990475 -28.353544 -11.166822 -16.426985 62.284756 2.093192 -8.977492 5.500377 -0.078100 -1.802200 4.959400 2.703897 -0.740070 3.313291 2.423732 -0.486000 -8.053716 3.269480 -4.111923 18.090895 -0.030200 -1.717900 9.045100 -77.520977 4.784100 26.976816 13.027954 -22.247379 -2.701387 -0.496583 -1.120945 -4.520593 -7.125000 0.000000 0.000000 74.412772 -1.441193 5.887094 -9.285515 20.397203 -2.034667 1.106911 -0.657301 6.607518 7.125000 0.000000 0.000000 
4.704464 17.874535 14.134552 0.664085 -1.974077 -1.690937 -19.817962 -9.624400 -7.850332 0.288050 6.635609 25.598957 0.649048 -1.422881 0.683298 0.056700 1.536400 4.226000 18.765814 11.865270 -29.195246 -10.608715 -16.271957 60.644661 2.122317 -8.938868 4.277206 -0.006400 0.517600 -1.422200 2.625616 -0.965014 3.424122 2.586144 -0.596179 -7.920462 3.159974 -3.978683 17.870152 -0.072100 -1.664700 9.008400 -77.237535 4.415621 27.463750 13.360977 -22.729286 -2.843537 -0.502003 -1.071219 -5.497707 -7.125000 0.000000 0.000000 74.524729 -1.650899 6.297198 -9.503578 20.753077 -2.127158 1.109419 -0.617389 6.362177 7.125000 0.000000 0.000000 
4.701254 17.863102 14.303639 1.042151 -1.672658 -1.606666 -20.279808 -9.512976 -7.133105 0.278104 6.544287 25.470861 0.719303 -1.594772 -0.145499 0.050800 1.454900 4.001500 18.143262 11.825044 -29.950246 -10.014862 -16.076373 58.819321 2.210359 -9.150853 3.518629 -0.176400 2.705100 -7.458900 2.545181 -1.188494 3.485911 2.776494 -0.706407 -7.924882 3.450120 -3.942878 17.908553 0.062400 -1.632900 9.101200 -76.988785 4.026240 28.026443 13.537996 -22.985828 -2.931258 -0.549874 -0.959089 -6.127266 -7.125000 0.000000 0.000000 74.572083 -1.879662 6.884145 -9.748651 21.149264 -2.213494 1.127020 -0.624596 5.892043 7.125000 0.000000 0.000000 
4.695137 17.847055 14.477340 1.097500 -1.511212 -1.492154 -20.351161 -9.374421 -6.479552 0.231618 6.425014 25.190719 0.751506 -1.629564 -0.687686 0.041300 1.311900 3.607300 17.910096 11.886833 -30.524618 -9.397147 -15.800574 56.767503 2.450447 -9.922184 3.808925 -0.101600 2.055400 -5.658700 2.543745 -1.314418 3.362732 2.817968 -0.775557 -8.152829 3.556938 -3.964800 17.986167 0.115900 -1.638900 9.166900 -76.665991 3.772378 28.264826 13.743523 -23.293353 -3.016134 -0.528842 -0.991781 -6.008660 -7.125000 0.000000 0.000000 74.663861 -2.125290 6.572014 -9.724546 21.120388 -2.222090 1.122809 -0.563491 6.072058 7.125000 0.000000 0.000000 
4.689521 17.844147 14.653348 1.087725 -1.426475 -1.448670 -20.348001 -9.210439 -5.795812 0.181255 6.301611 24.890637 0.764614 -1.617064 -1.069948 0.034200 1.194100 3.282900 17.773242 11.823894 -30.900771 -8.751355 -15.469785 54.588437 2.760596 -10.890642 3.919836 -0.006800 0.530900 -1.458700 2.574819 -1.382933 3.326422 2.827761 -0.817547 -8.264373 3.445390 -3.882861 17.821764 0.078000 -1.613000 9.119900 -76.395679 3.485466 28.420865 13.991588 -23.645382 -3.116187 -0.477769 -1.042951 -5.974247 -7.125000 0.000000 0.000000 74.714117 -2.553771 6.633723 -9.844289 21.334315 -2.295120 1.106675 -0.492768 5.810529 7.125000 0.000000 0.000000 
4.683603 17.839835 14.826045 1.299258 -1.302116 -1.337360 -20.583006 -9.192709 -5.145909 0.135504 6.176122 24.608785 0.776506 -1.625280 -1.427487 0.041800 1.320200 3.630200 17.350849 11.742546 -31.357832 -8.070278 -15.110798 52.311909 3.005042 -11.616409 3.869405 -0.000100 0.063800 -0.175400 2.520714 -1.465976 3.303382 2.901622 -0.862926 -8.255382 3.669341 -3.749018 17.467424 0.175000 -1.541700 8.973100 -76.112991 3.338837 29.878137 15.048776 -25.187786 -3.569162 -0.473538 -1.259495 -7.208382 -7.125000 0.000000 0.000000 74.817734 -3.100214 7.129755 -10.135600 21.810039 -2.417863 1.111416 -0.463268 5.118347 7.125000 0.000000 0.000000 
4.677686 17.824791 14.997941 1.459119 -1.109424 -1.173789 -20.717347 -9.112070 -4.551676 0.066804 6.021272 24.222470 0.840003 -1.802758 -1.753694 0.056700 1.537000 4.227600 16.947104 11.731101 -31.781529 -7.374266 -14.701922 49.945032 3.227563 -12.273961 4.004902 -0.000700 0.168000 -0.461600 2.546993 -1.634378 3.244545 3.050679 -0.948691 -8.265815 3.965115 -3.664514 17.335647 0.314400 -1.490500 8.930400 -75.880068 3.051950 29.896413 15.080600 -25.219110 -3.594397 -0.496243 -1.134180 -7.026108 -7.125000 0.000000 0.000000 74.781432 -3.316870 7.151901 -10.157111 21.848696 -2.415153 1.135636 -0.474621 5.135596 7.125000 0.000000 0.000000 
4.668059 17.811052 15.161914 1.353860 -0.995184 -1.018940 -20.504598 -8.906405 -4.018049 -0.024459 5.847831 23.733370 0.894485 -1.920454 -2.031299 0.047100 1.400200 3.850600 16.815456 11.964660 -32.050855 -6.677158 -14.215676 47.475447 3.522124 -13.151608 4.255393 -0.000700 0.170300 -0.468000 2.676348 -1.730496 3.141873 3.131805 -0.999167 -8.411363 3.727740 -3.682500 16.991274 0.229800 -1.533000 8.778600 -75.680165 2.699708 29.582507 14.889792 -24.924475 -3.515302 -0.475323 -1.039030 -6.826959 -7.125000 0.000000 0.000000 74.742507 -3.681835 7.162087 -10.182229 21.904551 -2.414066 1.152560 -0.508110 5.012161 7.125000 0.000000 0.000000 
4.657929 17.808143 15.333910 1.443086 -0.913630 -0.873623 -20.494623 -8.544025 -3.477383 -0.112960 5.655985 23.227695 0.940953 -2.047543 -2.216232 0.033200 1.175700 3.232500 16.450198 12.131725 -32.275232 -5.963009 -13.673661 44.808595 3.847582 -14.189027 5.089089 -0.002800 0.340900 -0.936700 2.684735 -1.774618 3.165413 3.183301 -1.026090 -8.366644 3.393381 -3.653591 16.554715 0.092900 -1.553800 8.619500 -75.502794 2.347727 29.362172 14.976352 -25.029871 -3.564909 -0.490973 -0.950629 -6.562024 -7.125000 0.000000 0.000000 74.819062 -3.911027 7.177042 -10.324289 22.135945 -2.471143 1.142341 -0.543862 4.773491 7.125000 0.000000 0.000000 
4.647299 17.801825 15.514631 1.725574 -0.845584 -0.770804 -20.704818 -8.257387 -2.785946 -0.223307 5.408380 22.591209 0.936230 -2.068545 -2.184648 0.027000 1.060100 2.914200 15.864047 12.157571 -32.395812 -5.239619 -13.079609 42.001207 4.126557 -15.162591 6.357504 -0.006400 0.516500 -1.419200 2.641345 -1.821713 3.361595 3.310738 -1.056453 -8.109411 3.308369 -3.620689 16.375123 0.061000 -1.549500 8.624500 -75.332297 1.773819 29.481950 15.249730 -25.396620 -3.702181 -0.528792 -0.858197 -6.445463 -7.125000 0.000000 0.000000 74.938978 -3.716103 6.968481 -10.427209 22.286057 -2.540541 1.114766 -0.475171 4.803969 7.125000 0.000000 0.000000 
4.638473 17.796911 15.687830 1.665249 -0.874595 -0.523337 -20.520702 -8.105991 -2.242694 -0.385163 5.106815 21.725886 0.878702 -1.940487 -1.791081 0.043100 1.339900 3.684500 15.612357 12.313746 -32.524691 -4.513684 -12.403813 39.101118 4.360348 -16.039006 7.659400 -0.001900 0.283000 -0.777600 2.695993 -1.888363 3.472910 3.317175 -1.106527 -7.959160 3.375083 -3.552059 16.328817 0.080100 -1.507800 8.691400 -75.080721 1.118759 29.534757 15.498855 -25.733097 -3.814568 -0.506264 -0.875664 -6.444563 -7.125000 0.000000 0.000000 75.061510 -3.702450 7.438548 -10.645197 22.619216 -2.659611 1.098116 -0.349181 4.163423 7.125000 0.000000 0.000000 
